<?xml version="1.0" standalone="no"?>
<!DOCTYPE svg PUBLIC "-//W3C//DTD SVG 20010904//EN"
 "http://www.w3.org/TR/2001/REC-SVG-20010904/DTD/svg10.dtd">
<svg version="1.0" xmlns="http://www.w3.org/2000/svg"
 width="300.000000pt" height="300.000000pt" viewBox="0 0 300.000000 300.000000"
 preserveAspectRatio="xMidYMid meet">
<metadata>
Created by potrace 1.11, written by Peter Selinger 2001-2013
</metadata>
<g transform="translate(0.000000,300.000000) scale(0.100000,-0.100000)"
fill="#000000" stroke="none">
<path d="M2686 2845 c-19 -7 -38 -10 -41 -7 -3 3 -5 0 -5 -6 0 -7 -5 -12 -11
-12 -12 0 -127 -67 -145 -85 -6 -5 -27 -21 -47 -35 -20 -14 -37 -28 -37 -32 0
-5 -6 -8 -14 -8 -8 0 -16 -4 -18 -8 -1 -5 -37 -37 -78 -72 -86 -72 -306 -293
-395 -395 -33 -38 -72 -82 -87 -97 -16 -16 -28 -32 -28 -36 0 -4 -8 -15 -17
-23 -10 -9 -31 -33 -48 -54 -16 -22 -42 -53 -56 -70 -50 -58 -159 -205 -159
-214 0 -5 -4 -11 -9 -13 -11 -4 -151 -214 -151 -227 0 -6 -3 -11 -8 -11 -4 0
-16 -17 -27 -37 -20 -37 -73 -93 -88 -93 -5 0 -14 -6 -21 -12 -8 -7 -24 -20
-36 -28 -12 -8 -32 -22 -44 -31 -43 -32 -273 -186 -336 -224 -267 -163 -501
-249 -530 -194 -15 27 -7 68 27 140 62 133 216 277 314 293 14 2 43 -4 65 -15
49 -23 78 -24 115 -2 60 35 63 121 7 168 -29 24 -66 44 -93 49 -5 1 -14 4 -20
7 -30 16 -150 -3 -222 -36 -151 -69 -354 -369 -353 -524 1 -128 72 -203 194
-204 96 0 203 39 401 147 79 43 241 145 270 169 6 4 22 16 36 25 79 51 136 91
152 106 21 22 21 15 0 -32 -9 -20 -17 -39 -18 -42 -1 -3 -7 -18 -14 -35 -27
-63 -41 -108 -41 -132 0 -35 42 -73 82 -73 42 0 49 5 83 60 57 93 223 234 332
282 55 24 64 18 68 -49 l4 -49 -72 -44 c-40 -24 -74 -47 -77 -50 -3 -3 -25
-19 -50 -35 -25 -17 -46 -33 -48 -37 -2 -5 -9 -8 -15 -8 -7 0 -25 -11 -40 -25
-15 -14 -27 -23 -27 -20 0 3 -8 -3 -18 -12 -10 -10 -40 -36 -67 -58 -53 -44
-205 -192 -205 -201 0 -2 -9 -15 -21 -27 -38 -40 -111 -158 -131 -210 -19 -50
-20 -109 -3 -149 10 -24 54 -50 98 -59 159 -29 564 323 704 611 18 36 32 68
32 73 0 4 7 20 15 35 7 15 22 64 32 110 10 45 21 82 25 82 4 0 35 16 68 34 34
19 61 32 61 29 0 -3 8 1 18 9 21 19 250 114 392 163 57 20 107 41 111 47 11
17 -5 50 -29 59 -13 5 -22 4 -22 -1 0 -6 -13 -10 -28 -10 -16 0 -32 -3 -36 -7
-4 -5 -11 -8 -14 -9 -16 -1 -96 -26 -111 -34 -9 -5 -41 -18 -71 -29 -30 -11
-73 -27 -95 -37 -22 -10 -42 -18 -45 -19 -3 0 -49 -22 -104 -48 -88 -42 -130
-57 -114 -41 11 10 -23 91 -47 114 -50 47 -134 41 -215 -14 -25 -16 -51 -36
-58 -43 -22 -21 -22 -15 1 26 21 38 60 66 155 110 17 8 32 19 32 23 0 4 7 8
15 8 8 0 15 5 15 10 0 6 5 10 10 10 14 0 197 130 246 175 7 5 20 17 31 25 55
44 119 96 130 105 123 108 187 168 338 320 99 99 196 200 217 225 20 25 44 55
55 67 44 52 59 71 127 162 86 116 110 172 104 245 -9 112 -102 162 -222 121z
m107 -144 c5 -19 -31 -113 -45 -119 -4 -2 -8 -9 -8 -14 0 -13 -88 -131 -184
-248 -75 -91 -378 -398 -486 -492 -111 -97 -138 -119 -205 -173 -27 -22 -57
-47 -66 -55 -9 -8 -29 -24 -44 -35 -16 -11 -41 -30 -56 -42 -15 -13 -31 -23
-37 -23 -6 0 -12 -4 -14 -9 -3 -8 -83 -61 -94 -61 -3 0 3 11 13 24 10 13 24
32 31 42 31 46 134 190 145 204 7 8 23 31 37 50 13 19 27 37 30 40 3 3 21 25
40 50 36 47 48 62 77 95 10 12 30 36 45 55 14 19 42 53 62 75 20 22 59 67 88
100 55 62 332 341 384 385 96 84 236 175 248 163 3 -4 6 -1 6 5 0 18 27 3 33
-17z m-1228 -1858 c-33 -68 -96 -167 -145 -226 -37 -46 -169 -176 -205 -202
-22 -17 -42 -32 -45 -36 -33 -37 -190 -117 -190 -96 0 27 60 136 105 192 73
91 272 281 349 334 12 8 23 18 26 22 9 12 135 97 139 94 2 -2 -14 -39 -34 -82z"/>
<path d="M1975 940 c-3 -5 -12 -7 -20 -3 -8 3 -15 -1 -15 -8 0 -7 -3 -10 -6
-6 -9 9 -30 -15 -39 -43 -34 -102 70 -179 154 -116 19 15 31 26 27 26 -5 0 -4
6 1 13 25 31 -3 112 -45 129 -38 16 -51 17 -57 8z"/>
</g>
</svg>
